<?xml version="1.0" standalone="no"?><!DOCTYPE svg PUBLIC "-//W3C//DTD SVG 1.1//EN" "http://www.w3.org/Graphics/SVG/1.1/DTD/svg11.dtd"><svg t="1571413976082" class="icon" viewBox="0 0 1024 1024" version="1.1" xmlns="http://www.w3.org/2000/svg" p-id="9077" xmlns:xlink="http://www.w3.org/1999/xlink" width="200" height="200"><defs><style type="text/css"></style></defs><path d="M512 1024C229.248 1024 0 794.752 0 512S229.248 0 512 0s512 229.248 512 512-229.248 512-512 512z m78.805333-512l118.186667-118.186667a55.722667 55.722667 0 1 0-78.805333-78.805333L512 433.194667l-118.186667-118.186667A55.722667 55.722667 0 0 0 315.008 393.813333l118.186667 118.186667-118.186667 118.186667a55.722667 55.722667 0 1 0 78.805333 78.805333l118.186667-118.186667 118.186667 118.186667a55.722667 55.722667 0 1 0 78.805333-78.805333L590.805333 512z" p-id="9078" fill="#ffffff"></path></svg>