<?xml version="1.0" standalone="no"?><!DOCTYPE svg PUBLIC "-//W3C//DTD SVG 1.1//EN" "http://www.w3.org/Graphics/SVG/1.1/DTD/svg11.dtd"><svg t="1571414020871" class="icon" viewBox="0 0 1024 1024" version="1.1" xmlns="http://www.w3.org/2000/svg" p-id="9249" xmlns:xlink="http://www.w3.org/1999/xlink" width="200" height="200"><defs><style type="text/css"></style></defs><path d="M512 1024C229.248 1024 0 794.752 0 512S229.248 0 512 0s512 229.248 512 512-229.248 512-512 512z m-2.346667-210.901333a64 64 0 1 0 0-128 64 64 0 0 0 0 128zM509.482667 213.333333a82.816 82.816 0 0 0-82.090667 93.610667l38.528 293.546667c2.944 22.4 22.016 39.168 44.629333 39.168a44.8 44.8 0 0 0 44.458667-39.168l37.034667-293.504A83.2 83.2 0 0 0 509.482667 213.333333z" p-id="9250" fill="#ffffff"></path></svg>